<svg xmlns="http://www.w3.org/2000/svg" height="700" width="1200" xmlns:v="https://vecta.io/nano"><defs><clipPath ><path d="M92.398 188.537c-2.103-4.142-.158-9.706 1.128-13.75h0c3.824-12.025 10.14-23.382 15.991-34.423h0c6.111-11.528 6.284-39.186 5.001-55.045h0c7.667-5.906 14.018-9.03 23.001-8.092h0c7.962.832 16.822 5.108 25.459 10.952h0c-3.727 14.48-7.974 28.601-3.899 43.927h0c1.272 4.784 4.146 11.183 7.505 16.712h0c5.023 8.266 20.498 18.169 15.8 23.17h0c-4.402 4.687-15.3-2.623-18.969-4.656h0c-2.886-1.598-5.475-3.289-7.908-4.898h0c-9.695-7.452-17.914-12.396-29.498-5.334h0c-1.397.851-2.972 2.182-4.676 3.849h0c-4.683 3.851-8.607 8.963-12.302 14.03h0c-4.597 5.565-9.333 11.313-13.657 15.63h0c-.134.023-.267.035-.399.035h0c-.925 0-1.807-.59-2.577-2.107"/></clipPath><linearGradient y2="133.853" x2="183.261" y1="133.853" x1="91.468"  gradientUnits="userSpaceOnUse" gradientTransform="matrix(-115.23591,115.23591,115.23591,115.23591,195.51816,300.57855)" spreadMethod="pad"><stop offset="0" stop-color="#ffaa15"/><stop offset="1" stop-color="#ff038e"/></linearGradient><linearGradient id="C" x1="973.393" y1="652.321" x2="654.006" y2="357.39" gradientUnits="userSpaceOnUse"><stop offset="0" stop-color="#ff0524"/><stop offset="1" stop-color="#ffb110"/></linearGradient></defs><path d="M700.65 388.512c-.068 0-.123.012-.189.012-57.812.504-104.525 47.518-104.525 105.449 0 58.244 47.219 105.461 105.463 105.461l2.045-.025c.008 0 .017.002.025.002h223.342 2.953c8.416 0 15.645-4.707 19.135-11.568 17.171-26.248 52.392-91.473 78.943-138.123l12.342-21.377.166-.281v-.002l2.703-4.686c5.92-10.254 2.434-23.275-7.82-29.195l-4.83-2.787a21.33 21.33 0 0 0-29.195 7.824l-41.785 72.373v-61.703a21.33 21.33 0 0 0-21.373-21.373h-5.574a21.33 21.33 0 0 0-21.373 21.373v145.891c0 .392.038.775.059 1.162h-2.479c-7.342-.291-10.127-.741-10.127-5.912V402.76c0-11.84-7.708-14.248-17.285-14.248h-4.51c-9.577 0-17.289 2.408-17.289 14.248v64.711l-39.408-68.256c-3.568-6.18-9.716-9.882-16.281-10.562-.544-.091-1.208-.141-2.035-.141h-49.633c9.922 0 17.91 2.406 17.91 14.246V542.85c0 11.84-7.988 14.246-17.91 14.246h-4.672c-9.262 0-16.751-2.201-17.719-12.109-3.328 3.424-7.766 6.92-12.953 9.777 4.419-3.599 6.558-7.508 6.715-14.018-3.372 4.384-6.999 11.218-15.373 8.82 2.889-1.488 5.39-3.493 6.748-7.008a20.69 20.69 0 0 1-2.588.041c14.34-14.534 12.401-29.045 5.91-43.471-1.531 3.515-3.323 10.329-5.371 12.787.237-11.493-4.808-20.034-11.299-23.053 4.226 9.747 4.745 20.724-4.053 27.344-10.178 8.518-10.415 15.57-3.838 26.416-8.086-9.488-16.109-11.968-24.109-1.963 6.879 4.528 5.628 12.723 19.17 16.453-8.645-.722-15.408-2.899-20.59-6.258-4.641-3.555-8.784-8.207-11.453-14.229-3.127-7.935-3.688-17.724-2.523-28.592 4.615-29.197 20.464-29.716 24.496-58.309 1.704 5.865 2.654 12.508 2.805 19.969 6.297-11.407 6.144-22.771 1.551-34.113 19.17 8.712 33.921 22.253 42.244 42.846 2.187-2.103 3.609-5.322 4.318-9.68v-65.99c0-11.84 7.99-14.246 17.912-14.246zm109.752 90.613l40.758 70.594c1.748 3.028 4.127 5.443 6.861 7.219h-47.676c.021-.387.057-.77.057-1.162z" transform="matrix(2.666666 0 0 2.666666 -1589.161561 -967.256895)" fill="url(#C)" paint-order="fill markers stroke"/></svg>