<?xml version="1.0" encoding="UTF-8" standalone="no"?>
<svg
   inkscape:version="1.1.1 (3bf5ae0d25, 2021-09-20)"
   sodipodi:docname="logo_1024x1024.svg"
   viewBox="0 0 1024 1024"
   height="1024"
   width="1024"
   xml:space="preserve"
   id="svg2"
   version="1.1"
   xmlns:inkscape="http://www.inkscape.org/namespaces/inkscape"
   xmlns:sodipodi="http://sodipodi.sourceforge.net/DTD/sodipodi-0.dtd"
   xmlns:xlink="http://www.w3.org/1999/xlink"
   xmlns="http://www.w3.org/2000/svg"
   xmlns:svg="http://www.w3.org/2000/svg"
   xmlns:rdf="http://www.w3.org/1999/02/22-rdf-syntax-ns#"
   xmlns:cc="http://creativecommons.org/ns#"
   xmlns:dc="http://purl.org/dc/elements/1.1/"><metadata
     id="metadata8"><rdf:RDF><cc:Work
         rdf:about=""><dc:format>image/svg+xml</dc:format><dc:type
           rdf:resource="http://purl.org/dc/dcmitype/StillImage" /></cc:Work></rdf:RDF></metadata><defs
     id="defs6"><linearGradient
       id="linearGradient2597"
       inkscape:collect="always"><stop
         id="stop2593"
         offset="0"
         style="stop-color:#ff0524;stop-opacity:1" /><stop
         id="stop2595"
         offset="1"
         style="stop-color:#ffb110;stop-opacity:1" /></linearGradient><linearGradient
       x1="0"
       y1="0"
       x2="1"
       y2="0"
       gradientUnits="userSpaceOnUse"
       gradientTransform="matrix(-115.23591,115.23591,115.23591,115.23591,195.51816,300.57855)"
       spreadMethod="pad"
       id="linearGradient1105"><stop
         style="stop-opacity:1;stop-color:#ffaa15"
         offset="0"
         id="stop1101" /><stop
         style="stop-opacity:1;stop-color:#ff038e"
         offset="1"
         id="stop1103" /></linearGradient><clipPath
       id="clipPath20"
       clipPathUnits="userSpaceOnUse"><path
         id="path18"
         d="m 403.705,192.881 c -6.128,-0.403 -12.433,-2.139 -18.02,-4.662 v 0 c -8.083,-3.652 -15.374,-9.416 -19.706,-17.242 v 0 c -1.758,-3.175 -5.183,-12.416 -5.183,-12.416 v 0 c 0,0 -0.788,1.5 -1.173,2.255 v 0 c -0.762,1.497 -1.56,2.978 -2.342,4.466 v 0 c -2.572,4.904 -5.317,9.844 -8.807,14.173 v 0 c -10.126,12.555 -23.246,16.213 -38.593,11.489 v 0 c -28.285,-8.708 -40.015,-36.288 -27.167,-62.781 v 0 c 7.811,-16.108 64.114,-71.652 84.579,-80.176 v 0 c 0,0 67.423,56.218 76,87.966 v 0 c 7.451,27.582 -5.997,57.037 -36.376,57.035 v 0 c -1.049,0 -2.123,-0.036 -3.212,-0.107" /></clipPath><linearGradient
       id="linearGradient30"
       spreadMethod="pad"
       gradientTransform="matrix(167.7847,0,0,-167.7847,277.5235,120.48742)"
       gradientUnits="userSpaceOnUse"
       y2="0"
       x2="1"
       y1="0"
       x1="0"><stop
         id="stop26"
         offset="0"
         style="stop-opacity:1;stop-color:#ff6c6b" /><stop
         id="stop28"
         offset="1"
         style="stop-opacity:1;stop-color:#ff0095" /></linearGradient><clipPath
       id="clipPath68"
       clipPathUnits="userSpaceOnUse"><path
         id="path66"
         d="m 360.722,454.71 c -2.824,0.025 -5.341,-1.477 -7.656,-2.947 v 0 c -5.622,-3.568 -10.687,-8.643 -15.783,-12.891 v 0 c -5.575,-4.648 -11.581,-8.752 -17.144,-13.414 v 0 C 309.586,416.62 299.278,407.54 288.953,398.437 v 0 c -3.602,-3.176 -8.035,-5.988 -10.952,-9.821 v 0 c -1.025,-1.35 -2.421,-3.96 -1.615,-5.701 v 0 c 0.765,-1.648 3.393,-1.999 4.937,-2.339 v 0 c 2.749,-0.606 7.392,-0.159 11.215,0.289 v 0 c 2.954,0.345 5.42,0.692 6.142,0.551 v 0 l -0.083,-75.91 c 0,-5.26 4.27,-9.53 9.53,-9.53 v 0 h 105.191 c 5.259,0 9.529,4.27 9.529,9.53 v 0 74.01 c 1.655,0.322 12.398,-0.013 17.273,1.06 v 0 c 1.544,0.34 4.172,0.691 4.936,2.339 v 0 c 0.809,1.741 -0.587,4.351 -1.613,5.701 v 0 c -2.917,3.833 -7.352,6.645 -10.952,9.821 v 0 c -10.325,9.103 -20.634,18.183 -31.186,27.021 v 0 c -5.564,4.662 -11.569,8.766 -17.145,13.414 v 0 c -5.095,4.248 -10.161,9.323 -15.783,12.891 v 0 c -2.296,1.458 -4.789,2.947 -7.585,2.947 v 0 c -0.023,0 -0.047,0 -0.07,0" /></clipPath><linearGradient
       id="linearGradient78"
       spreadMethod="pad"
       gradientTransform="matrix(116.08805,-116.08805,-116.08805,-116.08805,302.6778,413.56839)"
       gradientUnits="userSpaceOnUse"
       y2="0"
       x2="1"
       y1="0"
       x1="0"><stop
         id="stop74"
         offset="0"
         style="stop-opacity:1;stop-color:#ffb40e" /><stop
         id="stop76"
         offset="1"
         style="stop-opacity:1;stop-color:#ff008e" /></linearGradient><clipPath
       id="clipPath120"
       clipPathUnits="userSpaceOnUse"><path
         id="path118"
         d="m 62.453,168.861 c 1.191,-12.648 6.378,-28.619 12.651,-39.504 v 0 C 85.02,112.158 92.487,103.769 107.157,91.35 v 0 C 118.61,81.653 125.842,76.008 137.52,77.227 v 0 c 26.407,2.76 62.69,43.405 67.952,53.49 v 0 c 6.465,12.392 10.668,24.529 9.057,38.302 v 0 c -1.039,8.879 -9.306,17.488 -20.068,15.238 v 0 c -6.141,-1.285 -20.626,-7.493 -36.326,-19.78 v 0 c -10.886,-8.52 -19.511,-15.068 -32.126,-7.377 v 0 c -9.318,5.679 -26.515,32.625 -37.44,39.149 v 0 c -4.122,2.461 -7.634,3.508 -10.622,3.508 v 0 C 64.232,199.754 61.623,177.671 62.453,168.861" /></clipPath><linearGradient
       id="linearGradient130"
       spreadMethod="pad"
       gradientTransform="matrix(0,-122.69402,-122.69402,0,138.59409,199.7571)"
       gradientUnits="userSpaceOnUse"
       y2="0"
       x2="1"
       y1="0"
       x1="0"><stop
         id="stop126"
         offset="0"
         style="stop-opacity:1;stop-color:#f0119c" /><stop
         id="stop128"
         offset="1"
         style="stop-opacity:1;stop-color:#3d0074" /></linearGradient><clipPath
       id="clipPath140"
       clipPathUnits="userSpaceOnUse"><path
         id="path138"
         d="m 92.398,188.537 c -2.103,-4.142 -0.158,-9.706 1.128,-13.75 v 0 c 3.824,-12.025 10.14,-23.382 15.991,-34.423 v 0 c 6.111,-11.528 6.284,-39.186 5.001,-55.045 v 0 c 7.667,-5.906 14.018,-9.03 23.001,-8.092 v 0 c 7.962,0.832 16.822,5.108 25.459,10.952 v 0 c -3.727,14.48 -7.974,28.601 -3.899,43.927 v 0 c 1.272,4.784 4.146,11.183 7.505,16.712 v 0 c 5.023,8.266 20.498,18.169 15.8,23.17 v 0 c -4.402,4.687 -15.3,-2.623 -18.969,-4.656 v 0 c -2.886,-1.598 -5.475,-3.289 -7.908,-4.898 v 0 c -9.695,-7.452 -17.914,-12.396 -29.498,-5.334 v 0 c -1.397,0.851 -2.972,2.182 -4.676,3.849 v 0 c -4.683,3.851 -8.607,8.963 -12.302,14.03 v 0 c -4.597,5.565 -9.333,11.313 -13.657,15.63 v 0 c -0.134,0.023 -0.267,0.035 -0.399,0.035 v 0 c -0.925,0 -1.807,-0.59 -2.577,-2.107" /></clipPath><linearGradient
       id="linearGradient150"
       spreadMethod="pad"
       gradientTransform="matrix(0,-118.99172,-118.99172,0,137.36447,190.64423)"
       gradientUnits="userSpaceOnUse"
       y2="0"
       x2="1"
       y1="0"
       x1="0"><stop
         id="stop146"
         offset="0"
         style="stop-opacity:1;stop-color:#ff6c6b" /><stop
         id="stop148"
         offset="1"
         style="stop-opacity:1;stop-color:#ff0095" /></linearGradient><clipPath
       id="clipPath160"
       clipPathUnits="userSpaceOnUse"><path
         id="path158"
         d="m 99.248,211.234 c 0,-7.634 6.197,-13.831 13.831,-13.831 v 0 c 7.633,0 13.829,6.197 13.829,13.831 v 0 c 0,7.633 -6.196,13.83 -13.829,13.83 v 0 c -7.634,0 -13.831,-6.197 -13.831,-13.83" /></clipPath><linearGradient
       id="linearGradient170"
       spreadMethod="pad"
       gradientTransform="matrix(0,-27.6598,-27.6598,0,113.07831,225.0631)"
       gradientUnits="userSpaceOnUse"
       y2="0"
       x2="1"
       y1="0"
       x1="0"><stop
         id="stop166"
         offset="0"
         style="stop-opacity:1;stop-color:#f0119c" /><stop
         id="stop168"
         offset="1"
         style="stop-opacity:1;stop-color:#3d0074" /></linearGradient><clipPath
       id="clipPath180"
       clipPathUnits="userSpaceOnUse"><path
         id="path178"
         d="m 161.63,199.981 c 0,-7.633 6.197,-13.831 13.83,-13.831 v 0 c 7.632,0 13.831,6.198 13.831,13.831 v 0 c 0,7.632 -6.199,13.829 -13.831,13.829 v 0 c -7.633,0 -13.83,-6.197 -13.83,-13.829" /></clipPath><linearGradient
       id="linearGradient190"
       spreadMethod="pad"
       gradientTransform="matrix(0,-27.6609,-27.6609,0,175.46025,213.81081)"
       gradientUnits="userSpaceOnUse"
       y2="0"
       x2="1"
       y1="0"
       x1="0"><stop
         id="stop186"
         offset="0"
         style="stop-opacity:1;stop-color:#f0119c" /><stop
         id="stop188"
         offset="1"
         style="stop-opacity:1;stop-color:#3d0074" /></linearGradient><clipPath
       id="clipPath200"
       clipPathUnits="userSpaceOnUse"><path
         id="path198"
         d="m 130.087,179.746 c 0,-6.379 5.179,-11.559 11.559,-11.559 v 0 c 6.38,0 11.559,5.18 11.559,11.559 v 0 c 0,6.38 -5.179,11.56 -11.559,11.56 v 0 c -6.38,0 -11.559,-5.18 -11.559,-11.56" /></clipPath><linearGradient
       id="linearGradient210"
       spreadMethod="pad"
       gradientTransform="matrix(0,-23.1175,-23.1175,0,141.64595,191.30521)"
       gradientUnits="userSpaceOnUse"
       y2="0"
       x2="1"
       y1="0"
       x1="0"><stop
         id="stop206"
         offset="0"
         style="stop-opacity:1;stop-color:#ff6c6b" /><stop
         id="stop208"
         offset="1"
         style="stop-opacity:1;stop-color:#ff0095" /></linearGradient><clipPath
       id="clipPath224"
       clipPathUnits="userSpaceOnUse"><path
         id="path222"
         d="m 56.4,358.196 c 0,-44.981 36.519,-81.5 81.5,-81.5 v 0 c 44.982,0 81.5,36.519 81.5,81.5 v 0 c 0,44.981 -36.518,81.5 -81.5,81.5 v 0 c -44.981,0 -81.5,-36.519 -81.5,-81.5" /></clipPath><linearGradient
       id="linearGradient234"
       spreadMethod="pad"
       gradientTransform="matrix(-115.23591,115.23591,115.23591,115.23591,195.51816,300.57855)"
       gradientUnits="userSpaceOnUse"
       y2="0"
       x2="1"
       y1="0"
       x1="0"><stop
         id="stop230"
         offset="0"
         style="stop-opacity:1;stop-color:#1976ff" /><stop
         id="stop232"
         offset="1"
         style="stop-opacity:1;stop-color:#ce00ff" /></linearGradient><linearGradient
       gradientUnits="userSpaceOnUse"
       y2="133.85326"
       x2="183.26077"
       y1="133.85326"
       x1="91.468414"
       id="linearGradient1091"
       xlink:href="#linearGradient1105"
       inkscape:collect="always" /><linearGradient
       inkscape:collect="always"
       xlink:href="#linearGradient2597"
       id="linearGradient194"
       gradientUnits="userSpaceOnUse"
       gradientTransform="matrix(1.1876666,0,0,1.1876666,1178.1064,-18.498358)"
       x1="-172.36559"
       y1="564.82141"
       x2="-441.28601"
       y2="316.49286" /></defs><sodipodi:namedview
     inkscape:current-layer="g10"
     inkscape:window-maximized="1"
     inkscape:window-y="-8"
     inkscape:window-x="-8"
     inkscape:cy="466.69048"
     inkscape:cx="752.36162"
     inkscape:zoom="0.1767767"
     inkscape:guide-bbox="true"
     showguides="true"
     showgrid="false"
     id="namedview4"
     inkscape:window-height="715"
     inkscape:window-width="1366"
     inkscape:pageshadow="2"
     inkscape:pageopacity="0"
     guidetolerance="10"
     gridtolerance="10"
     objecttolerance="10"
     borderopacity="1"
     bordercolor="#666666"
     pagecolor="#ffffff"
     inkscape:pagecheckerboard="0"
     height="1024px" /><g
     transform="matrix(1.3333333,0,0,-1.3333333,0,666.66667)"
     inkscape:label="3988940"
     inkscape:groupmode="layer"
     id="g10"><g
       style="fill:url(#linearGradient1091);fill-opacity:1"
       id="g134"><g
         style="fill:url(#linearGradient1091);fill-opacity:1"
         clip-path="url(#clipPath140)"
         id="g136"><g
           style="fill:url(#linearGradient1091);fill-opacity:1"
           id="g142"><g
             style="fill:url(#linearGradient1091);fill-opacity:1"
             id="g144" /></g></g></g><g
       transform="matrix(1.8196019,0,0,1.8196019,-70.899548,-371.19112)"
       id="g192"
       inkscape:export-filename="C:\Users\wfigueredo\Downloads\logo_cnv.png"
       inkscape:export-xdpi="218.45"
       inkscape:export-ydpi="218.45"><text
         transform="scale(1,-1)"
         style="font-variant:normal;font-weight:600;font-stretch:normal;font-size:27.2106px;line-height:0;font-family:'Antipasto Pro DemiBold';-inkscape-font-specification:AntipastoPro-DemiBold;writing-mode:lr-tb;fill:#ff1e21;fill-opacity:1;fill-rule:nonzero;stroke:none"
         id="text182"
         x="258.72183"
         y="-152.75095"><tspan
           sodipodi:role="line"
           id="tspan178"
           style="font-style:normal;font-variant:normal;font-weight:800;font-stretch:normal;line-height:22.5px;font-family:Nunito;-inkscape-font-specification:'Nunito Ultra-Bold';text-align:center;letter-spacing:0px;text-anchor:middle;fill:#ff1e21;fill-opacity:1"
           x="258.72183"
           y="-152.75095">Comunidade</tspan><tspan
           sodipodi:role="line"
           style="font-style:normal;font-variant:normal;font-weight:800;font-stretch:normal;line-height:22.5px;font-family:Nunito;-inkscape-font-specification:'Nunito Ultra-Bold';text-align:center;letter-spacing:0px;text-anchor:middle;fill:#ff1e21;fill-opacity:1"
           x="258.72183"
           y="-130.25095"
           id="tspan180">Nova Vida</tspan></text><g
         id="g190"
         transform="matrix(1.4504599,0,0,1.4504599,-125.59709,-200.03394)"><path
           id="path184"
           style="fill:url(#linearGradient194);fill-opacity:1;stroke:none;stroke-width:11.8767;stroke-linecap:round;stroke-linejoin:round;paint-order:fill markers stroke"
           d="m 700.65039,388.51172 c -0.0679,0 -0.12259,0.0117 -0.18945,0.0117 -57.81181,0.50441 -104.52539,47.51833 -104.52539,105.44922 0,58.24434 47.21855,105.46093 105.46289,105.46093 0.69136,0 1.36763,-0.0126 2.04492,-0.0254 0.008,2e-5 0.0168,0.002 0.0254,0.002 h 223.3418 2.95312 c 8.41633,0 15.64515,-4.70739 19.13477,-11.56836 17.17071,-26.2478 52.39225,-91.47285 78.94335,-138.12305 l 12.3418,-21.37695 c 0.053,-0.0893 0.1134,-0.19224 0.166,-0.28125 v -0.002 l 2.7031,-4.68554 c 5.9203,-10.25414 2.4339,-23.2751 -7.8203,-29.19532 l -4.8301,-2.78711 c -10.2541,-5.92022 -23.275,-2.42992 -29.1953,7.82422 l -41.78511,72.37305 v -61.70312 c 0,-11.84045 -9.5326,-21.37305 -21.37305,-21.37305 h -5.57422 c -11.84047,0 -21.37305,9.5326 -21.37305,21.37305 v 145.89062 c 0,0.39234 0.038,0.7751 0.0586,1.16211 h -2.47852 c -7.34163,-0.29103 -10.12695,-0.74148 -10.12695,-5.91211 V 402.75977 c 0,-11.84045 -7.70834,-14.24805 -17.28516,-14.24805 h -4.50976 c -9.57682,0 -17.28907,2.4076 -17.28907,14.24805 v 64.71093 l -39.4082,-68.25586 c -3.56805,-6.18004 -9.71559,-9.88173 -16.28125,-10.5625 -0.54352,-0.0906 -1.20762,-0.14062 -2.03516,-0.14062 h -49.63281 c 9.92226,0 17.91016,2.40564 17.91016,14.24609 v 140.0918 c 0,11.84045 -7.9879,14.24609 -17.91016,14.24609 h -4.67187 c -9.26167,0 -16.75076,-2.20079 -17.71875,-12.10937 -3.32804,3.42419 -7.76618,6.91985 -12.95313,9.77734 4.41921,-3.59948 6.55823,-7.50761 6.71485,-14.01758 -3.3719,4.38379 -6.99924,11.21814 -15.37305,8.82032 2.88948,-1.48788 5.38956,-3.49299 6.74805,-7.00782 -0.84097,0.0646 -1.72536,0.0841 -2.5879,0.041 14.33965,-14.5337 12.40074,-29.04481 5.91016,-43.4707 -1.531,3.51482 -3.32257,10.32889 -5.37109,12.78711 0.2372,-11.49328 -4.80825,-20.03386 -11.29883,-23.05274 4.22643,9.74664 4.74513,20.72379 -4.05274,27.34375 -10.1779,8.51753 -10.41471,15.56963 -3.83789,26.41602 -8.08626,-9.48789 -16.10936,-11.96829 -24.10937,-1.96289 6.87871,4.5283 5.62811,12.72264 19.16992,16.45312 -8.64536,-0.72243 -15.4075,-2.89881 -20.58984,-6.25781 -4.64058,-3.55513 -8.78406,-8.20717 -11.45313,-14.22852 -3.1267,-7.93532 -3.68786,-17.72385 -2.52344,-28.59179 4.61456,-29.19681 20.46375,-29.71556 24.4961,-58.3086 1.70351,5.86525 2.65377,12.50782 2.80469,19.96875 6.2965,-11.40703 6.14378,-22.77094 1.55078,-34.11328 19.16984,8.71161 33.92067,22.25267 42.24414,42.8457 2.18693,-2.10281 3.60892,-5.3222 4.31836,-9.67968 v -65.99024 c 0,-11.84045 7.98985,-14.24609 17.91211,-14.24609 z m 109.75195,90.61328 40.75782,70.59375 c 1.74802,3.02765 4.12668,5.44333 6.86132,7.21875 H 810.3457 c 0.0206,-0.38701 0.0566,-0.76977 0.0566,-1.16211 z"
           transform="matrix(0.63149037,0,0,-0.63149037,-259.46287,638.31849)"
           sodipodi:nodetypes="scsssscsccccccccscsssssccssssscccscsssscccccccccccccccccccccscsccccsc" /></g></g></g></svg>
